HIERARCHY
ROOT Hips
{
	OFFSET 46.458900 -4.192846 95.525200
	CHANNELS 6 Xposition Yposition Zposition Xrotation Yrotation Zrotation
	JOINT spine
	{
		OFFSET 0.000000 -0.458068 7.965683
		CHANNELS 3 Xrotation Yrotation Zrotation
		JOINT spine1
		{
			OFFSET 0.000000 -0.000002 10.243103
			CHANNELS 3 Xrotation Yrotation Zrotation
			JOINT spine2
			{
				OFFSET 0.000000 -0.000001 9.814751
				CHANNELS 3 Xrotation Yrotation Zrotation
				JOINT Neck
				{
					OFFSET 0.000000 -1.201384 25.198608
					CHANNELS 3 Xrotation Yrotation Zrotation
					JOINT Head
					{
						OFFSET 0.000000 -0.000001 7.613144
						CHANNELS 3 Xrotation Yrotation Zrotation
						End Site
						{
							OFFSET 0.000000 6.077327 18.428101
						}
					}
				}
				JOINT RightShoulder
				{
					OFFSET -4.132698 0.575449 10.599197
					CHANNELS 3 Xrotation Yrotation Zrotation
					JOINT RightArm
					{
						OFFSET 0.000000 -0.000002 13.901794
						CHANNELS 3 Xrotation Yrotation Zrotation
						JOINT RightArmRoll
						{
							OFFSET 0.000000 -0.000001 7.017883
							CHANNELS 3 Xrotation Yrotation Zrotation
							JOINT RightForeArm
							{
								OFFSET 0.000000 -0.000003 20.440598
								CHANNELS 3 Xrotation Yrotation Zrotation
								JOINT RightForeArmRoll
								{
									OFFSET 0.000000 -0.000001 7.875153
									CHANNELS 3 Xrotation Yrotation Zrotation
									JOINT RightHand
									{
										OFFSET 0.000000 -0.000002 15.803696
										CHANNELS 3 Xrotation Yrotation Zrotation
										End Site
										{
											OFFSET 0.000000 0.000000 0.100006
										}
									}
								}
							}
						}
					}
				}
				JOINT LeftShoulder
				{
					OFFSET 4.132698 0.575449 10.599197
					CHANNELS 3 Xrotation Yrotation Zrotation
					JOINT LeftArm
					{
						OFFSET 0.000000 -0.000002 13.901794
						CHANNELS 3 Xrotation Yrotation Zrotation
						JOINT LeftArmRoll
						{
							OFFSET 0.000000 -0.000001 7.017883
							CHANNELS 3 Xrotation Yrotation Zrotation
							JOINT LeftForeArm
							{
								OFFSET 0.000000 -0.000003 20.440598
								CHANNELS 3 Xrotation Yrotation Zrotation
								JOINT LeftForeArmRoll
								{
									OFFSET 0.000000 -0.000001 7.875153
									CHANNELS 3 Xrotation Yrotation Zrotation
									JOINT LeftHand
									{
										OFFSET 0.000000 -0.000002 15.803696
										CHANNELS 3 Xrotation Yrotation Zrotation
										End Site
										{
											OFFSET 0.000000 0.000000 0.100006
										}
									}
								}
							}
						}
					}
				}
			}
		}
	}
	JOINT RightUpLeg
	{
		OFFSET -7.060478 1.086091 -1.294701
		CHANNELS 3 Xrotation Yrotation Zrotation
		JOINT RightUpLegRoll
		{
			OFFSET 0.000000 -0.000003 18.530800
			CHANNELS 3 Xrotation Yrotation Zrotation
			JOINT RightLeg
			{
				OFFSET 0.000000 0.000004 -22.947601
				CHANNELS 3 Xrotation Yrotation Zrotation
				JOINT RightLegRoll
				{
					OFFSET 0.000000 -0.000004 23.022598
					CHANNELS 3 Xrotation Yrotation Zrotation
					JOINT RightFoot
					{
						OFFSET 0.000000 -0.000003 19.162498
						CHANNELS 3 Xrotation Yrotation Zrotation
						JOINT RightToeBase
						{
							OFFSET 0.000000 -0.000003 16.018799
							CHANNELS 3 Xrotation Yrotation Zrotation
							End Site
							{
								OFFSET 0.006790 0.894205 7.757828
							}
						}
					}
				}
			}
		}
	}
	JOINT LeftUpLeg
	{
		OFFSET 7.060478 1.086091 -1.294701
		CHANNELS 3 Xrotation Yrotation Zrotation
		JOINT LeftUpLegRoll
		{
			OFFSET 0.000000 -0.000003 18.530899
			CHANNELS 3 Xrotation Yrotation Zrotation
			JOINT LeftLeg
			{
				OFFSET 0.000000 -0.000004 22.947495
				CHANNELS 3 Xrotation Yrotation Zrotation
				JOINT LeftLegRoll
				{
					OFFSET 0.000000 -0.000004 23.235504
					CHANNELS 3 Xrotation Yrotation Zrotation
					JOINT LeftFoot
					{
						OFFSET 0.000000 -0.000003 18.949600
						CHANNELS 3 Xrotation Yrotation Zrotation
						JOINT LeftToeBase
						{
							OFFSET 0.000000 -0.000003 16.018799
							CHANNELS 3 Xrotation Yrotation Zrotation
							End Site
							{
								OFFSET -0.030430 0.894205 7.757828
							}
						}
					}
				}
			}
		}
	}
}
MOTION
Frames: 8
Frame Time: 0.041667
49.987801 -2.943116 95.516403 -3.254727 1.534052 0.626382 -1.672707 -0.387993 -0.008530 0.657328 -0.768384 -0.016124 2.302469 -0.768594 -0.006948 23.475234 1.569082 -0.953073 -3.693872 -1.116785 -0.799073 3.165452 -66.902645 2.571708 -54.372465 -109.508860 -29.512353 0.000002 0.000005 0.000003 0.031483 -2.733901 -0.084506 0.000002 0.000003 -3.007200 -5.000194 -7.999770 0.000028 -3.741103 70.925682 5.559823 -60.654245 111.462663 38.640658 -0.000001 -0.000004 0.000001 2.834697 2.885622 -0.372237 -0.000001 0.000005 3.005578 -5.000189 7.999741 -0.000043 4.891609 -176.790704 -2.058276 179.999991 -0.000005 -1.270000 173.088796 -2.031150 -0.675146 -0.000002 0.000004 0.177689 71.460205 6.905071 1.905255 26.101056 -7.350638 0.954055 2.263806 173.064371 -0.695775 -0.000005 -0.000004 -1.202360 -9.651969 1.995451 0.457723 -0.000002 0.000003 -0.252703 72.998057 -6.803565 -2.066088 25.469828 7.351391 -0.001207 
49.989494 -2.943614 95.514801 -3.258335 1.538290 0.635954 -1.670497 -0.388341 -0.007775 0.661743 -0.769731 -0.015218 2.306880 -0.769924 -0.006023 23.469548 1.553683 -0.958292 -3.690676 -1.104026 -0.805987 3.092323 -66.900392 2.490017 -54.365772 -109.520239 -29.523199 -0.000001 0.000005 0.000002 0.031484 -2.748640 -0.084599 0.000002 0.000004 -3.007197 -5.000195 -7.999770 0.000028 -3.683252 70.909214 5.494456 -60.589201 111.478243 38.548963 -0.000004 -0.000004 0.000002 2.802557 2.849335 -0.372277 -0.000002 0.000005 3.005580 -5.000192 7.999741 -0.000044 4.898660 -176.794720 -2.058502 179.999991 -0.000005 -1.270000 173.087840 -2.033126 -0.675420 -0.000001 0.000004 0.177689 71.461804 6.905074 1.905255 26.102271 -7.350635 0.955745 2.257955 173.059344 -0.698207 -0.000005 -0.000004 -1.202310 -9.670540 1.993843 0.457940 -0.000001 0.000003 -0.253294 73.006656 -6.803450 -2.067647 25.469827 7.351392 -0.001208 
49.995296 -2.922713 95.514297 -3.261105 1.542749 0.646355 -1.668427 -0.388726 -0.007039 0.665887 -0.771156 -0.014372 2.311021 -0.771333 -0.005157 23.462962 1.537696 -0.963668 -3.686662 -1.091108 -0.813097 3.016292 -66.898049 2.405072 -54.360007 -109.532001 -29.535517 0.000002 0.000005 0.000002 0.031487 -2.763773 -0.084705 -0.000001 0.000005 -3.007199 -5.000193 -7.999770 0.000027 -3.622827 70.892678 5.426257 -60.517552 111.493460 38.452387 -0.000001 -0.000004 0.000002 2.774244 2.815254 -0.372552 0.000001 0.000004 3.005580 -5.000190 7.999741 -0.000045 4.904996 -176.799747 -2.058995 179.999991 -0.000005 -1.270000 173.087225 -2.036108 -0.675803 -0.000002 0.000004 0.177689 71.463190 6.905048 1.905265 26.103485 -7.350638 0.957529 2.250655 173.054317 -0.700544 -0.000005 -0.000005 -1.202240 -9.689593 1.992182 0.458169 -0.000002 0.000002 -0.253866 73.015125 -6.803286 -2.069509 25.469823 7.351392 -0.001208 
49.993496 -2.939876 95.518089 -3.263261 1.547358 0.657333 -1.666459 -0.389137 -0.006315 0.669839 -0.772636 -0.013569 2.314982 -0.772798 -0.004333 23.455667 1.521294 -0.969152 -3.682060 -1.078090 -0.820347 2.938264 -66.895706 2.317886 -54.354782 -109.544008 -29.548860 -0.000001 0.000005 0.000004 0.031486 -2.779179 -0.084813 -0.000000 0.000005 -3.007198 -5.000195 -7.999770 0.000028 -3.560721 70.876258 5.356196 -60.444305 111.507694 38.355624 -0.000002 -0.000004 0.000001 2.748603 2.782701 -0.373001 -0.000001 0.000005 3.005581 -5.000195 7.999740 -0.000044 4.910850 -176.804747 -2.059635 179.999991 -0.000004 -1.270001 173.086788 -2.038086 -0.675061 -0.000002 0.000004 0.177689 71.464372 6.905059 1.905293 26.104799 -7.350639 0.959386 2.242352 173.048279 -0.702854 -0.000005 -0.000005 -1.202160 -9.708956 1.990500 0.458409 -0.000002 0.000002 -0.254425 73.023567 -6.803055 -2.071562 25.469825 7.351392 -0.001207 
49.995201 -2.930913 95.514702 -3.265090 1.552048 0.668642 -1.664537 -0.389563 -0.005599 0.673684 -0.774149 -0.012790 2.318823 -0.774294 -0.003532 23.447971 1.504665 -0.974704 -3.677148 -1.065013 -0.827678 2.859045 -66.893254 2.229372 -54.350097 -109.556262 -29.562999 0.000003 0.000005 0.000002 0.031485 -2.794750 -0.084927 0.000003 0.000004 -3.007197 -5.000193 -7.999770 0.000028 -3.497635 70.859743 5.285060 -60.370177 111.521355 38.258758 -0.000000 -0.000004 0.000002 2.724492 2.751033 -0.373550 -0.000002 0.000004 3.005581 -5.000192 7.999740 -0.000046 4.916417 -176.809760 -2.060353 179.999991 -0.000005 -1.270000 173.086542 -2.040064 -0.675310 -0.000003 0.000004 0.177689 71.465328 6.905073 1.905339 26.106110 -7.350638 0.961274 2.233467 173.042228 -0.705124 -0.000005 -0.000005 -1.202069 -9.728506 1.988787 0.458654 -0.000002 0.000002 -0.254977 73.031811 -6.802866 -2.073733 25.469828 7.351392 -0.001209 
49.994900 -2.939706 95.515297 -3.266825 1.556757 0.680033 -1.662628 -0.389992 -0.004885 0.677500 -0.775668 -0.012017 2.322634 -0.775797 -0.002738 23.440181 1.487970 -0.980273 -3.672140 -1.051926 -0.835030 2.779587 -66.890761 2.140582 -54.342966 -109.569014 -29.574661 0.000002 0.000005 0.000002 0.031485 -2.810351 -0.085042 -0.000000 0.000005 -3.007201 -5.000191 -7.999770 0.000029 -3.434412 70.843200 5.213752 -60.293795 111.535473 38.159785 -0.000002 -0.000004 0.000001 2.700765 2.719593 -0.374146 -0.000000 0.000005 3.005580 -5.000189 7.999741 -0.000043 4.921910 -176.814760 -2.061086 179.999991 -0.000004 -1.270000 173.086269 -2.043047 -0.675681 -0.000002 0.000003 0.177689 71.466298 6.905087 1.905279 26.107423 -7.350639 0.963172 2.224433 173.037201 -0.707344 -0.000005 -0.000004 -1.201980 -9.748099 1.987073 0.458899 -0.000002 0.000003 -0.255527 73.040137 -6.802613 -2.075888 25.469827 7.351391 -0.001209 
50.001598 -2.935732 95.510597 -3.268737 1.561427 0.691260 -1.660699 -0.390413 -0.004167 0.681372 -0.777172 -0.011231 2.326515 -0.777285 -0.001930 23.432593 1.471401 -0.985818 -3.667294 -1.038859 -0.842346 2.700694 -66.888125 2.052433 -54.338168 -109.581178 -29.588673 -0.000001 0.000003 -0.000000 0.031485 -2.825880 -0.085150 0.000002 0.000004 -3.007202 -5.000194 -7.999771 0.000027 -3.371796 70.826733 5.143125 -60.220132 111.549393 38.063265 -0.000001 -0.000004 0.000002 2.676276 2.687701 -0.374735 0.000001 0.000005 3.005577 -5.000195 7.999740 -0.000046 4.927544 -176.819773 -2.061781 179.999991 -0.000005 -1.270000 173.085968 -2.045026 -0.674934 -0.000002 0.000004 0.177689 71.467370 6.905066 1.905409 26.108734 -7.350637 0.965059 2.215696 173.031163 -0.709620 -0.000005 -0.000005 -1.201890 -9.767600 1.985370 0.459140 -0.000002 0.000003 -0.256081 73.048477 -6.802383 -2.078049 25.469825 7.351392 -0.001208 
49.999897 -2.940362 95.512802 -3.271062 1.565986 0.702074 -1.658687 -0.390817 -0.003440 0.685380 -0.778636 -0.010415 2.330515 -0.778733 -0.001093 23.425508 1.455126 -0.991291 -3.662864 -1.025880 -0.849566 2.623280 -66.885522 1.965940 -54.330490 -109.593698 -29.599321 -0.000000 0.000004 0.000001 0.031481 -2.841211 -0.085261 0.000002 0.000005 -3.007198 -5.000194 -7.999769 0.000026 -3.310604 70.810115 5.074060 -60.147718 111.564023 37.966918 -0.000003 -0.000005 0.000002 2.649885 2.654725 -0.375255 -0.000001 0.000006 3.005579 -5.000191 7.999741 -0.000045 4.933531 -176.824773 -2.062389 179.999991 -0.000005 -1.270000 173.085504 -2.048006 -0.675312 -0.000002 0.000004 0.177689 71.468552 6.905076 1.905339 26.110046 -7.350637 0.966896 2.207687 173.025125 -0.711942 -0.000005 -0.000005 -1.201810 -9.786872 1.983699 0.459373 -0.000002 0.000002 -0.256644 73.056933 -6.802173 -2.080003 25.469823 7.351392 -0.001208 
